<?xml version="1.0" encoding="UTF-8" standalone="no"?><svg xmlns="http://www.w3.org/2000/svg" xmlns:xlink="http://www.w3.org/1999/xlink" clip-rule="evenodd" stroke-miterlimit="10" viewBox="0 0 300 22"><desc>SVG generated by Keynote</desc><defs></defs><g transform="matrix(1.00, 0.00, -0.00, -1.00, 0.0, 22.0)"><text xml:space="preserve" font-family="Helvetica,Helvetica" font-size="21.0" fill="#FEFFFE" transform="matrix(1.00, 0.00, -0.00, -1.00, 0.3, 5.3)">l</text><text xml:space="preserve" font-family="Helvetica,Helvetica" font-size="21.0" fill="#FEFFFE" transform="matrix(1.00, 0.00, -0.00, -1.00, 5.0, 5.3)">e</text><text xml:space="preserve" font-family="Helvetica,Helvetica" font-size="21.0" fill="#FEFFFE" transform="matrix(1.00, 0.00, -0.00, -1.00, 16.7, 5.3)">a</text><text xml:space="preserve" font-family="Helvetica,Helvetica" font-size="21.0" fill="#FEFFFE" transform="matrix(1.00, 0.00, -0.00, -1.00, 28.4, 5.3)">r</text><text xml:space="preserve" font-family="Helvetica,Helvetica" font-size="21.0" fill="#FEFFFE" transform="matrix(1.00, 0.00, -0.00, -1.00, 35.4, 5.3)">n</text><text xml:space="preserve" font-family="Helvetica,Helvetica" font-size="21.0" fill="#FEFFFE" transform="matrix(1.00, 0.00, -0.00, -1.00, 47.0, 5.3)"> </text><text xml:space="preserve" font-family="Helvetica,Helvetica" font-size="21.0" fill="#FEFFFE" transform="matrix(1.00, 0.00, -0.00, -1.00, 52.9, 5.3)">m</text><text xml:space="preserve" font-family="Helvetica,Helvetica" font-size="21.0" fill="#FEFFFE" transform="matrix(1.00, 0.00, -0.00, -1.00, 70.4, 5.3)">o</text><text xml:space="preserve" font-family="Helvetica,Helvetica" font-size="21.0" fill="#FEFFFE" transform="matrix(1.00, 0.00, -0.00, -1.00, 82.1, 5.3)">r</text><text xml:space="preserve" font-family="Helvetica,Helvetica" font-size="21.0" fill="#FEFFFE" transform="matrix(1.00, 0.00, -0.00, -1.00, 89.0, 5.3)">e</text><text xml:space="preserve" font-family="Helvetica,Helvetica" font-size="21.0" fill="#FEFFFE" transform="matrix(1.00, 0.00, -0.00, -1.00, 100.7, 5.3)"> </text><text xml:space="preserve" font-family="Helvetica,Helvetica" font-size="21.0" fill="#FEFFFE" transform="matrix(1.00, 0.00, -0.00, -1.00, 106.6, 5.3)">a</text><text xml:space="preserve" font-family="Helvetica,Helvetica" font-size="21.0" fill="#FEFFFE" transform="matrix(1.00, 0.00, -0.00, -1.00, 118.2, 5.3)">b</text><text xml:space="preserve" font-family="Helvetica,Helvetica" font-size="21.0" fill="#FEFFFE" transform="matrix(1.00, 0.00, -0.00, -1.00, 129.9, 5.3)">o</text><text xml:space="preserve" font-family="Helvetica,Helvetica" font-size="21.0" fill="#FEFFFE" transform="matrix(1.00, 0.00, -0.00, -1.00, 141.6, 5.3)">u</text><text xml:space="preserve" font-family="Helvetica,Helvetica" font-size="21.0" fill="#FEFFFE" transform="matrix(1.00, 0.00, -0.00, -1.00, 153.3, 5.3)">t</text><text xml:space="preserve" font-family="Helvetica,Helvetica" font-size="21.0" fill="#FEFFFE" transform="matrix(1.00, 0.00, -0.00, -1.00, 159.1, 5.3)"> </text><text xml:space="preserve" font-family="Helvetica,Helvetica" font-size="21.0" fill="#FEFFFE" transform="matrix(1.00, 0.00, -0.00, -1.00, 165.0, 5.3)">v</text><text xml:space="preserve" font-family="Helvetica,Helvetica" font-size="21.0" fill="#FEFFFE" transform="matrix(1.00, 0.00, -0.00, -1.00, 175.5, 5.3)">e</text><text xml:space="preserve" font-family="Helvetica,Helvetica" font-size="21.0" fill="#FEFFFE" transform="matrix(1.00, 0.00, -0.00, -1.00, 187.1, 5.3)">t</text><text xml:space="preserve" font-family="Helvetica,Helvetica" font-size="21.0" fill="#FEFFFE" transform="matrix(1.00, 0.00, -0.00, -1.00, 193.0, 5.3)">e</text><text xml:space="preserve" font-family="Helvetica,Helvetica" font-size="21.0" fill="#FEFFFE" transform="matrix(1.00, 0.00, -0.00, -1.00, 204.7, 5.3)">r</text><text xml:space="preserve" font-family="Helvetica,Helvetica" font-size="21.0" fill="#FEFFFE" transform="matrix(1.00, 0.00, -0.00, -1.00, 211.6, 5.3)">a</text><text xml:space="preserve" font-family="Helvetica,Helvetica" font-size="21.0" fill="#FEFFFE" transform="matrix(1.00, 0.00, -0.00, -1.00, 223.3, 5.3)">n</text><text xml:space="preserve" font-family="Helvetica,Helvetica" font-size="21.0" fill="#FEFFFE" transform="matrix(1.00, 0.00, -0.00, -1.00, 235.0, 5.3)">s</text><text xml:space="preserve" font-family="Helvetica,Helvetica" font-size="21.0" fill="#FEFFFE" transform="matrix(1.00, 0.00, -0.00, -1.00, 245.5, 5.3)">,</text><text xml:space="preserve" font-family="Helvetica,Helvetica" font-size="21.0" fill="#FEFFFE" transform="matrix(1.00, 0.00, -0.00, -1.00, 251.3, 5.3)"> </text><text xml:space="preserve" font-family="Helvetica,Helvetica" font-size="21.0" fill="#FEFFFE" transform="matrix(1.00, 0.00, -0.00, -1.00, 257.2, 5.3)">t</text><text xml:space="preserve" font-family="Helvetica,Helvetica" font-size="21.0" fill="#FEFFFE" transform="matrix(1.00, 0.00, -0.00, -1.00, 263.0, 5.3)">h</text><text xml:space="preserve" font-family="Helvetica,Helvetica" font-size="21.0" fill="#FEFFFE" transform="matrix(1.00, 0.00, -0.00, -1.00, 274.7, 5.3)">e</text><text xml:space="preserve" font-family="Helvetica,Helvetica" font-size="21.0" fill="#FEFFFE" transform="matrix(1.00, 0.00, -0.00, -1.00, 286.4, 5.3)">i</text><text xml:space="preserve" font-family="Helvetica,Helvetica" font-size="21.0" fill="#FEFFFE" transform="matrix(1.00, 0.00, -0.00, -1.00, 291.0, 5.3)">r</text></g></svg>