<?xml version="1.0" encoding="UTF-8" standalone="no"?><svg xmlns="http://www.w3.org/2000/svg" xmlns:xlink="http://www.w3.org/1999/xlink" clip-rule="evenodd" stroke-miterlimit="10" viewBox="0 0 298 24"><desc>SVG generated by Keynote</desc><defs></defs><g transform="matrix(1.00, 0.00, -0.00, -1.00, 0.0, 24.0)"><text xml:space="preserve" font-family="Helvetica,Helvetica" font-size="21.0" fill="#FEFFFE" transform="matrix(1.00, 0.00, -0.00, -1.00, 1.3, 6.3)">V</text><text xml:space="preserve" font-family="Helvetica,Helvetica" font-size="21.0" fill="#FEFFFE" transform="matrix(1.00, 0.00, -0.00, -1.00, 14.2, 6.3)">e</text><text xml:space="preserve" font-family="Helvetica,Helvetica" font-size="21.0" fill="#FEFFFE" transform="matrix(1.00, 0.00, -0.00, -1.00, 25.9, 6.3)">t</text><text xml:space="preserve" font-family="Helvetica,Helvetica" font-size="21.0" fill="#FEFFFE" transform="matrix(1.00, 0.00, -0.00, -1.00, 31.7, 6.3)">e</text><text xml:space="preserve" font-family="Helvetica,Helvetica" font-size="21.0" fill="#FEFFFE" transform="matrix(1.00, 0.00, -0.00, -1.00, 43.4, 6.3)">r</text><text xml:space="preserve" font-family="Helvetica,Helvetica" font-size="21.0" fill="#FEFFFE" transform="matrix(1.00, 0.00, -0.00, -1.00, 50.4, 6.3)">a</text><text xml:space="preserve" font-family="Helvetica,Helvetica" font-size="21.0" fill="#FEFFFE" transform="matrix(1.00, 0.00, -0.00, -1.00, 62.1, 6.3)">n</text><text xml:space="preserve" font-family="Helvetica,Helvetica" font-size="21.0" fill="#FEFFFE" transform="matrix(1.00, 0.00, -0.00, -1.00, 73.8, 6.3)">s</text><text xml:space="preserve" font-family="Helvetica,Helvetica" font-size="21.0" fill="#FEFFFE" transform="matrix(1.00, 0.00, -0.00, -1.00, 84.3, 6.3)"> </text><text xml:space="preserve" font-family="Helvetica,Helvetica" font-size="21.0" fill="#FEFFFE" transform="matrix(1.00, 0.00, -0.00, -1.00, 90.1, 6.3)">a</text><text xml:space="preserve" font-family="Helvetica,Helvetica" font-size="21.0" fill="#FEFFFE" transform="matrix(1.00, 0.00, -0.00, -1.00, 101.8, 6.3)">r</text><text xml:space="preserve" font-family="Helvetica,Helvetica" font-size="21.0" fill="#FEFFFE" transform="matrix(1.00, 0.00, -0.00, -1.00, 108.8, 6.3)">e</text><text xml:space="preserve" font-family="Helvetica,Helvetica" font-size="21.0" fill="#FEFFFE" transform="matrix(1.00, 0.00, -0.00, -1.00, 120.4, 6.3)"> </text><text xml:space="preserve" font-family="Helvetica,Helvetica" font-size="21.0" fill="#FEFFFE" transform="matrix(1.00, 0.00, -0.00, -1.00, 126.3, 6.3)">g</text><text xml:space="preserve" font-family="Helvetica,Helvetica" font-size="21.0" fill="#FEFFFE" transform="matrix(1.00, 0.00, -0.00, -1.00, 138.0, 6.3)">o</text><text xml:space="preserve" font-family="Helvetica,Helvetica" font-size="21.0" fill="#FEFFFE" transform="matrix(1.00, 0.00, -0.00, -1.00, 149.6, 6.3)">o</text><text xml:space="preserve" font-family="Helvetica,Helvetica" font-size="21.0" fill="#FEFFFE" transform="matrix(1.00, 0.00, -0.00, -1.00, 161.3, 6.3)">d</text><text xml:space="preserve" font-family="Helvetica,Helvetica" font-size="21.0" fill="#FEFFFE" transform="matrix(1.00, 0.00, -0.00, -1.00, 173.0, 6.3)"> </text><text xml:space="preserve" font-family="Helvetica,Helvetica" font-size="21.0" fill="#FEFFFE" transform="matrix(1.00, 0.00, -0.00, -1.00, 178.8, 6.3)">f</text><text xml:space="preserve" font-family="Helvetica,Helvetica" font-size="21.0" fill="#FEFFFE" transform="matrix(1.00, 0.00, -0.00, -1.00, 184.7, 6.3)">o</text><text xml:space="preserve" font-family="Helvetica,Helvetica" font-size="21.0" fill="#FEFFFE" transform="matrix(1.00, 0.00, -0.00, -1.00, 196.3, 6.3)">r</text><text xml:space="preserve" font-family="Helvetica,Helvetica" font-size="21.0" fill="#FEFFFE" transform="matrix(1.00, 0.00, -0.00, -1.00, 203.3, 6.3)"> </text><text xml:space="preserve" font-family="Helvetica,Helvetica" font-size="21.0" fill="#FEFFFE" transform="matrix(1.00, 0.00, -0.00, -1.00, 209.2, 6.3)">b</text><text xml:space="preserve" font-family="Helvetica,Helvetica" font-size="21.0" fill="#FEFFFE" transform="matrix(1.00, 0.00, -0.00, -1.00, 220.9, 6.3)">u</text><text xml:space="preserve" font-family="Helvetica,Helvetica" font-size="21.0" fill="#FEFFFE" transform="matrix(1.00, 0.00, -0.00, -1.00, 232.5, 6.3)">s</text><text xml:space="preserve" font-family="Helvetica,Helvetica" font-size="21.0" fill="#FEFFFE" transform="matrix(1.00, 0.00, -0.00, -1.00, 243.0, 6.3)">i</text><text xml:space="preserve" font-family="Helvetica,Helvetica" font-size="21.0" fill="#FEFFFE" transform="matrix(1.00, 0.00, -0.00, -1.00, 247.7, 6.3)">n</text><text xml:space="preserve" font-family="Helvetica,Helvetica" font-size="21.0" fill="#FEFFFE" transform="matrix(1.00, 0.00, -0.00, -1.00, 259.4, 6.3)">e</text><text xml:space="preserve" font-family="Helvetica,Helvetica" font-size="21.0" fill="#FEFFFE" transform="matrix(1.00, 0.00, -0.00, -1.00, 271.1, 6.3)">s</text><text xml:space="preserve" font-family="Helvetica,Helvetica" font-size="21.0" fill="#FEFFFE" transform="matrix(1.00, 0.00, -0.00, -1.00, 281.6, 6.3)">s</text><text xml:space="preserve" font-family="Helvetica,Helvetica" font-size="21.0" fill="#FEFFFE" transform="matrix(1.00, 0.00, -0.00, -1.00, 292.1, 6.3)">.</text></g></svg>