<?xml version="1.0" encoding="UTF-8" standalone="no"?><svg xmlns="http://www.w3.org/2000/svg" xmlns:xlink="http://www.w3.org/1999/xlink" clip-rule="evenodd" stroke-miterlimit="10" viewBox="0 0 281 24"><desc>SVG generated by Keynote</desc><defs></defs><g transform="matrix(1.00, 0.00, -0.00, -1.00, 0.0, 24.0)"><text xml:space="preserve" font-family="Helvetica,Helvetica" font-size="21.0" fill="#FEFFFE" transform="matrix(1.00, 0.00, -0.00, -1.00, 1.3, 6.3)">a</text><text xml:space="preserve" font-family="Helvetica,Helvetica" font-size="21.0" fill="#FEFFFE" transform="matrix(1.00, 0.00, -0.00, -1.00, 13.0, 6.3)">l</text><text xml:space="preserve" font-family="Helvetica,Helvetica" font-size="21.0" fill="#FEFFFE" transform="matrix(1.00, 0.00, -0.00, -1.00, 17.7, 6.3)">l</text><text xml:space="preserve" font-family="Helvetica,Helvetica" font-size="21.0" fill="#FEFFFE" transform="matrix(1.00, 0.00, -0.00, -1.00, 22.4, 6.3)">:</text><text xml:space="preserve" font-family="Helvetica,Helvetica" font-size="21.0" fill="#FEFFFE" transform="matrix(1.00, 0.00, -0.00, -1.00, 28.2, 6.3)"> </text><text xml:space="preserve" font-family="Helvetica,Helvetica" font-size="21.0" fill="#FEFFFE" transform="matrix(1.00, 0.00, -0.00, -1.00, 34.0, 6.3)">b</text><text xml:space="preserve" font-family="Helvetica,Helvetica" font-size="21.0" fill="#FEFFFE" transform="matrix(1.00, 0.00, -0.00, -1.00, 45.7, 6.3)">e</text><text xml:space="preserve" font-family="Helvetica,Helvetica" font-size="21.0" fill="#FEFFFE" transform="matrix(1.00, 0.00, -0.00, -1.00, 57.4, 6.3)">c</text><text xml:space="preserve" font-family="Helvetica,Helvetica" font-size="21.0" fill="#FEFFFE" transform="matrix(1.00, 0.00, -0.00, -1.00, 67.9, 6.3)">a</text><text xml:space="preserve" font-family="Helvetica,Helvetica" font-size="21.0" fill="#FEFFFE" transform="matrix(1.00, 0.00, -0.00, -1.00, 79.6, 6.3)">u</text><text xml:space="preserve" font-family="Helvetica,Helvetica" font-size="21.0" fill="#FEFFFE" transform="matrix(1.00, 0.00, -0.00, -1.00, 91.3, 6.3)">s</text><text xml:space="preserve" font-family="Helvetica,Helvetica" font-size="21.0" fill="#FEFFFE" transform="matrix(1.00, 0.00, -0.00, -1.00, 101.8, 6.3)">e</text><text xml:space="preserve" font-family="Helvetica,Helvetica" font-size="21.0" fill="#FEFFFE" transform="matrix(1.00, 0.00, -0.00, -1.00, 113.4, 6.3)"> </text><text xml:space="preserve" font-family="Helvetica,Helvetica" font-size="21.0" fill="#FEFFFE" transform="matrix(1.00, 0.00, -0.00, -1.00, 119.3, 6.3)">t</text><text xml:space="preserve" font-family="Helvetica,Helvetica" font-size="21.0" fill="#FEFFFE" transform="matrix(1.00, 0.00, -0.00, -1.00, 125.1, 6.3)">h</text><text xml:space="preserve" font-family="Helvetica,Helvetica" font-size="21.0" fill="#FEFFFE" transform="matrix(1.00, 0.00, -0.00, -1.00, 136.8, 6.3)">e</text><text xml:space="preserve" font-family="Helvetica,Helvetica" font-size="21.0" fill="#FEFFFE" transform="matrix(1.00, 0.00, -0.00, -1.00, 148.5, 6.3)">y</text><text xml:space="preserve" font-family="Helvetica,Helvetica" font-size="21.0" fill="#FEFFFE" transform="matrix(1.00, 0.00, -0.00, -1.00, 159.0, 6.3)"> </text><text xml:space="preserve" font-family="Helvetica,Helvetica" font-size="21.0" fill="#FEFFFE" transform="matrix(1.00, 0.00, -0.00, -1.00, 164.8, 6.3)">a</text><text xml:space="preserve" font-family="Helvetica,Helvetica" font-size="21.0" fill="#FEFFFE" transform="matrix(1.00, 0.00, -0.00, -1.00, 176.5, 6.3)">r</text><text xml:space="preserve" font-family="Helvetica,Helvetica" font-size="21.0" fill="#FEFFFE" transform="matrix(1.00, 0.00, -0.00, -1.00, 183.5, 6.3)">e</text><text xml:space="preserve" font-family="Helvetica,Helvetica" font-size="21.0" fill="#FEFFFE" transform="matrix(1.00, 0.00, -0.00, -1.00, 195.2, 6.3)"> </text><text xml:space="preserve" font-family="Helvetica,Helvetica" font-size="21.0" fill="#FEFFFE" transform="matrix(1.00, 0.00, -0.00, -1.00, 201.0, 6.3)">g</text><text xml:space="preserve" font-family="Helvetica,Helvetica" font-size="21.0" fill="#FEFFFE" transform="matrix(1.00, 0.00, -0.00, -1.00, 212.7, 6.3)">r</text><text xml:space="preserve" font-family="Helvetica,Helvetica" font-size="21.0" fill="#FEFFFE" transform="matrix(1.00, 0.00, -0.00, -1.00, 219.7, 6.3)">e</text><text xml:space="preserve" font-family="Helvetica,Helvetica" font-size="21.0" fill="#FEFFFE" transform="matrix(1.00, 0.00, -0.00, -1.00, 231.3, 6.3)">a</text><text xml:space="preserve" font-family="Helvetica,Helvetica" font-size="21.0" fill="#FEFFFE" transform="matrix(1.00, 0.00, -0.00, -1.00, 243.0, 6.3)">t</text><text xml:space="preserve" font-family="Helvetica,Helvetica" font-size="21.0" fill="#FEFFFE" transform="matrix(1.00, 0.00, -0.00, -1.00, 248.9, 6.3)"> </text><text xml:space="preserve" font-family="Helvetica,Helvetica" font-size="21.0" fill="#FEFFFE" transform="matrix(1.00, 0.00, -0.00, -1.00, 254.7, 6.3)">f</text><text xml:space="preserve" font-family="Helvetica,Helvetica" font-size="21.0" fill="#FEFFFE" transform="matrix(1.00, 0.00, -0.00, -1.00, 260.5, 6.3)">o</text><text xml:space="preserve" font-family="Helvetica,Helvetica" font-size="21.0" fill="#FEFFFE" transform="matrix(1.00, 0.00, -0.00, -1.00, 272.2, 6.3)">r</text></g></svg>