<?xml version="1.0" encoding="UTF-8" standalone="no"?><svg xmlns="http://www.w3.org/2000/svg" xmlns:xlink="http://www.w3.org/1999/xlink" clip-rule="evenodd" stroke-miterlimit="10" viewBox="0 0 281 24"><desc>SVG generated by Keynote</desc><defs></defs><g transform="matrix(1.00, 0.00, -0.00, -1.00, 0.0, 24.0)"><text xml:space="preserve" font-family="Helvetica,Helvetica" font-size="21.0" fill="#FEFFFE" transform="matrix(1.00, 0.00, -0.00, -1.00, 1.6, 6.3)">a</text><text xml:space="preserve" font-family="Helvetica,Helvetica" font-size="21.0" fill="#FEFFFE" transform="matrix(1.00, 0.00, -0.00, -1.00, 13.3, 6.3)">l</text><text xml:space="preserve" font-family="Helvetica,Helvetica" font-size="21.0" fill="#FEFFFE" transform="matrix(1.00, 0.00, -0.00, -1.00, 17.9, 6.3)">l</text><text xml:space="preserve" font-family="Helvetica,Helvetica" font-size="21.0" fill="#FEFFFE" transform="matrix(1.00, 0.00, -0.00, -1.00, 22.6, 6.3)">:</text><text xml:space="preserve" font-family="Helvetica,Helvetica" font-size="21.0" fill="#FEFFFE" transform="matrix(1.00, 0.00, -0.00, -1.00, 28.4, 6.3)"> </text><text xml:space="preserve" font-family="Helvetica,Helvetica" font-size="21.0" fill="#FEFFFE" transform="matrix(1.00, 0.00, -0.00, -1.00, 34.3, 6.3)">b</text><text xml:space="preserve" font-family="Helvetica,Helvetica" font-size="21.0" fill="#FEFFFE" transform="matrix(1.00, 0.00, -0.00, -1.00, 45.9, 6.3)">e</text><text xml:space="preserve" font-family="Helvetica,Helvetica" font-size="21.0" fill="#FEFFFE" transform="matrix(1.00, 0.00, -0.00, -1.00, 57.6, 6.3)">c</text><text xml:space="preserve" font-family="Helvetica,Helvetica" font-size="21.0" fill="#FEFFFE" transform="matrix(1.00, 0.00, -0.00, -1.00, 68.1, 6.3)">a</text><text xml:space="preserve" font-family="Helvetica,Helvetica" font-size="21.0" fill="#FEFFFE" transform="matrix(1.00, 0.00, -0.00, -1.00, 79.8, 6.3)">u</text><text xml:space="preserve" font-family="Helvetica,Helvetica" font-size="21.0" fill="#FEFFFE" transform="matrix(1.00, 0.00, -0.00, -1.00, 91.5, 6.3)">s</text><text xml:space="preserve" font-family="Helvetica,Helvetica" font-size="21.0" fill="#FEFFFE" transform="matrix(1.00, 0.00, -0.00, -1.00, 102.0, 6.3)">e</text><text xml:space="preserve" font-family="Helvetica,Helvetica" font-size="21.0" fill="#FEFFFE" transform="matrix(1.00, 0.00, -0.00, -1.00, 113.7, 6.3)"> </text><text xml:space="preserve" font-family="Helvetica,Helvetica" font-size="21.0" fill="#FEFFFE" transform="matrix(1.00, 0.00, -0.00, -1.00, 119.5, 6.3)">t</text><text xml:space="preserve" font-family="Helvetica,Helvetica" font-size="21.0" fill="#FEFFFE" transform="matrix(1.00, 0.00, -0.00, -1.00, 125.3, 6.3)">h</text><text xml:space="preserve" font-family="Helvetica,Helvetica" font-size="21.0" fill="#FEFFFE" transform="matrix(1.00, 0.00, -0.00, -1.00, 137.0, 6.3)">e</text><text xml:space="preserve" font-family="Helvetica,Helvetica" font-size="21.0" fill="#FEFFFE" transform="matrix(1.00, 0.00, -0.00, -1.00, 148.7, 6.3)">y</text><text xml:space="preserve" font-family="Helvetica,Helvetica" font-size="21.0" fill="#FEFFFE" transform="matrix(1.00, 0.00, -0.00, -1.00, 159.2, 6.3)"> </text><text xml:space="preserve" font-family="Helvetica,Helvetica" font-size="21.0" fill="#FEFFFE" transform="matrix(1.00, 0.00, -0.00, -1.00, 165.0, 6.3)">a</text><text xml:space="preserve" font-family="Helvetica,Helvetica" font-size="21.0" fill="#FEFFFE" transform="matrix(1.00, 0.00, -0.00, -1.00, 176.7, 6.3)">r</text><text xml:space="preserve" font-family="Helvetica,Helvetica" font-size="21.0" fill="#FEFFFE" transform="matrix(1.00, 0.00, -0.00, -1.00, 183.7, 6.3)">e</text><text xml:space="preserve" font-family="Helvetica,Helvetica" font-size="21.0" fill="#FEFFFE" transform="matrix(1.00, 0.00, -0.00, -1.00, 195.4, 6.3)"> </text><text xml:space="preserve" font-family="Helvetica,Helvetica" font-size="21.0" fill="#FEFFFE" transform="matrix(1.00, 0.00, -0.00, -1.00, 201.2, 6.3)">g</text><text xml:space="preserve" font-family="Helvetica,Helvetica" font-size="21.0" fill="#FEFFFE" transform="matrix(1.00, 0.00, -0.00, -1.00, 212.9, 6.3)">r</text><text xml:space="preserve" font-family="Helvetica,Helvetica" font-size="21.0" fill="#FEFFFE" transform="matrix(1.00, 0.00, -0.00, -1.00, 219.9, 6.3)">e</text><text xml:space="preserve" font-family="Helvetica,Helvetica" font-size="21.0" fill="#FEFFFE" transform="matrix(1.00, 0.00, -0.00, -1.00, 231.6, 6.3)">a</text><text xml:space="preserve" font-family="Helvetica,Helvetica" font-size="21.0" fill="#FEFFFE" transform="matrix(1.00, 0.00, -0.00, -1.00, 243.3, 6.3)">t</text><text xml:space="preserve" font-family="Helvetica,Helvetica" font-size="21.0" fill="#FEFFFE" transform="matrix(1.00, 0.00, -0.00, -1.00, 249.1, 6.3)"> </text><text xml:space="preserve" font-family="Helvetica,Helvetica" font-size="21.0" fill="#FEFFFE" transform="matrix(1.00, 0.00, -0.00, -1.00, 254.9, 6.3)">f</text><text xml:space="preserve" font-family="Helvetica,Helvetica" font-size="21.0" fill="#FEFFFE" transform="matrix(1.00, 0.00, -0.00, -1.00, 260.8, 6.3)">o</text><text xml:space="preserve" font-family="Helvetica,Helvetica" font-size="21.0" fill="#FEFFFE" transform="matrix(1.00, 0.00, -0.00, -1.00, 272.4, 6.3)">r</text></g></svg>