<?xml version="1.0" encoding="UTF-8" standalone="no"?><svg xmlns="http://www.w3.org/2000/svg" xmlns:xlink="http://www.w3.org/1999/xlink" clip-rule="evenodd" stroke-miterlimit="10" viewBox="0 0 139 30"><desc>SVG generated by Keynote</desc><defs></defs><g transform="matrix(1.00, 0.00, -0.00, -1.00, 0.0, 30.0)"><text xml:space="preserve" font-family="Helvetica-Light,Helvetica" font-size="28.0" fill="#FEFFFE" transform="matrix(1.00, 0.00, -0.00, -1.00, 1.1, 8.0)">T</text><text xml:space="preserve" font-family="Helvetica-Light,Helvetica" font-size="28.0" fill="#FEFFFE" transform="matrix(1.00, 0.00, -0.00, -1.00, 13.6, 8.0)">e</text><text xml:space="preserve" font-family="Helvetica-Light,Helvetica" font-size="28.0" fill="#FEFFFE" transform="matrix(1.00, 0.00, -0.00, -1.00, 29.2, 8.0)">m</text><text xml:space="preserve" font-family="Helvetica-Light,Helvetica" font-size="28.0" fill="#FEFFFE" transform="matrix(1.00, 0.00, -0.00, -1.00, 52.5, 8.0)">p</text><text xml:space="preserve" font-family="Helvetica-Light,Helvetica" font-size="28.0" fill="#FEFFFE" transform="matrix(1.00, 0.00, -0.00, -1.00, 69.6, 8.0)">l</text><text xml:space="preserve" font-family="Helvetica-Light,Helvetica" font-size="28.0" fill="#FEFFFE" transform="matrix(1.00, 0.00, -0.00, -1.00, 75.8, 8.0)">a</text><text xml:space="preserve" font-family="Helvetica-Light,Helvetica" font-size="28.0" fill="#FEFFFE" transform="matrix(1.00, 0.00, -0.00, -1.00, 91.4, 8.0)">t</text><text xml:space="preserve" font-family="Helvetica-Light,Helvetica" font-size="28.0" fill="#FEFFFE" transform="matrix(1.00, 0.00, -0.00, -1.00, 99.2, 8.0)">e</text><text xml:space="preserve" font-family="Helvetica-Light,Helvetica" font-size="28.0" fill="#FEFFFE" transform="matrix(1.00, 0.00, -0.00, -1.00, 114.7, 8.0)"> </text><text xml:space="preserve" font-family="Helvetica-Light,Helvetica" font-size="28.0" fill="#FEFFFE" transform="matrix(1.00, 0.00, -0.00, -1.00, 122.5, 8.0)">4</text></g></svg>