<?xml version="1.0" encoding="UTF-8" standalone="no"?><svg xmlns="http://www.w3.org/2000/svg" xmlns:xlink="http://www.w3.org/1999/xlink" clip-rule="evenodd" stroke-miterlimit="10" viewBox="0 0 295 24"><desc>SVG generated by Keynote</desc><defs></defs><g transform="matrix(1.00, 0.00, -0.00, -1.00, 0.0, 24.0)"><text xml:space="preserve" font-family="Helvetica,Helvetica" font-size="21.0" fill="#FEFFFE" transform="matrix(1.00, 0.00, -0.00, -1.00, 0.5, 6.8)">u</text><text xml:space="preserve" font-family="Helvetica,Helvetica" font-size="21.0" fill="#FEFFFE" transform="matrix(1.00, 0.00, -0.00, -1.00, 12.1, 6.8)">n</text><text xml:space="preserve" font-family="Helvetica,Helvetica" font-size="21.0" fill="#FEFFFE" transform="matrix(1.00, 0.00, -0.00, -1.00, 23.8, 6.8)">d</text><text xml:space="preserve" font-family="Helvetica,Helvetica" font-size="21.0" fill="#FEFFFE" transform="matrix(1.00, 0.00, -0.00, -1.00, 35.5, 6.8)">e</text><text xml:space="preserve" font-family="Helvetica,Helvetica" font-size="21.0" fill="#FEFFFE" transform="matrix(1.00, 0.00, -0.00, -1.00, 47.2, 6.8)">r</text><text xml:space="preserve" font-family="Helvetica,Helvetica" font-size="21.0" fill="#FEFFFE" transform="matrix(1.00, 0.00, -0.00, -1.00, 54.2, 6.8)">s</text><text xml:space="preserve" font-family="Helvetica,Helvetica" font-size="21.0" fill="#FEFFFE" transform="matrix(1.00, 0.00, -0.00, -1.00, 64.7, 6.8)">t</text><text xml:space="preserve" font-family="Helvetica,Helvetica" font-size="21.0" fill="#FEFFFE" transform="matrix(1.00, 0.00, -0.00, -1.00, 70.5, 6.8)">a</text><text xml:space="preserve" font-family="Helvetica,Helvetica" font-size="21.0" fill="#FEFFFE" transform="matrix(1.00, 0.00, -0.00, -1.00, 82.2, 6.8)">n</text><text xml:space="preserve" font-family="Helvetica,Helvetica" font-size="21.0" fill="#FEFFFE" transform="matrix(1.00, 0.00, -0.00, -1.00, 93.9, 6.8)">d</text><text xml:space="preserve" font-family="Helvetica,Helvetica" font-size="21.0" fill="#FEFFFE" transform="matrix(1.00, 0.00, -0.00, -1.00, 105.6, 6.8)">i</text><text xml:space="preserve" font-family="Helvetica,Helvetica" font-size="21.0" fill="#FEFFFE" transform="matrix(1.00, 0.00, -0.00, -1.00, 110.2, 6.8)">n</text><text xml:space="preserve" font-family="Helvetica,Helvetica" font-size="21.0" fill="#FEFFFE" transform="matrix(1.00, 0.00, -0.00, -1.00, 121.9, 6.8)">g</text><text xml:space="preserve" font-family="Helvetica,Helvetica" font-size="21.0" fill="#FEFFFE" transform="matrix(1.00, 0.00, -0.00, -1.00, 133.6, 6.8)"> </text><text xml:space="preserve" font-family="Helvetica,Helvetica" font-size="21.0" fill="#FEFFFE" transform="matrix(1.00, 0.00, -0.00, -1.00, 139.4, 6.8)">o</text><text xml:space="preserve" font-family="Helvetica,Helvetica" font-size="21.0" fill="#FEFFFE" transform="matrix(1.00, 0.00, -0.00, -1.00, 151.1, 6.8)">f</text><text xml:space="preserve" font-family="Helvetica,Helvetica" font-size="21.0" fill="#FEFFFE" transform="matrix(1.00, 0.00, -0.00, -1.00, 156.9, 6.8)"> </text><text xml:space="preserve" font-family="Helvetica,Helvetica" font-size="21.0" fill="#FEFFFE" transform="matrix(1.00, 0.00, -0.00, -1.00, 162.8, 6.8)">t</text><text xml:space="preserve" font-family="Helvetica,Helvetica" font-size="21.0" fill="#FEFFFE" transform="matrix(1.00, 0.00, -0.00, -1.00, 168.6, 6.8)">h</text><text xml:space="preserve" font-family="Helvetica,Helvetica" font-size="21.0" fill="#FEFFFE" transform="matrix(1.00, 0.00, -0.00, -1.00, 180.3, 6.8)">e</text><text xml:space="preserve" font-family="Helvetica,Helvetica" font-size="21.0" fill="#FEFFFE" transform="matrix(1.00, 0.00, -0.00, -1.00, 192.0, 6.8)"> </text><text xml:space="preserve" font-family="Helvetica,Helvetica" font-size="21.0" fill="#FEFFFE" transform="matrix(1.00, 0.00, -0.00, -1.00, 197.8, 6.8)">w</text><text xml:space="preserve" font-family="Helvetica,Helvetica" font-size="21.0" fill="#FEFFFE" transform="matrix(1.00, 0.00, -0.00, -1.00, 213.0, 6.8)">o</text><text xml:space="preserve" font-family="Helvetica,Helvetica" font-size="21.0" fill="#FEFFFE" transform="matrix(1.00, 0.00, -0.00, -1.00, 224.7, 6.8)">r</text><text xml:space="preserve" font-family="Helvetica,Helvetica" font-size="21.0" fill="#FEFFFE" transform="matrix(1.00, 0.00, -0.00, -1.00, 231.6, 6.8)">l</text><text xml:space="preserve" font-family="Helvetica,Helvetica" font-size="21.0" fill="#FEFFFE" transform="matrix(1.00, 0.00, -0.00, -1.00, 236.3, 6.8)">d</text><text xml:space="preserve" font-family="Helvetica,Helvetica" font-size="21.0" fill="#FEFFFE" transform="matrix(1.00, 0.00, -0.00, -1.00, 248.0, 6.8)"> </text><text xml:space="preserve" font-family="Helvetica,Helvetica" font-size="21.0" fill="#FEFFFE" transform="matrix(1.00, 0.00, -0.00, -1.00, 253.8, 6.8)">t</text><text xml:space="preserve" font-family="Helvetica,Helvetica" font-size="21.0" fill="#FEFFFE" transform="matrix(1.00, 0.00, -0.00, -1.00, 259.7, 6.8)">h</text><text xml:space="preserve" font-family="Helvetica,Helvetica" font-size="21.0" fill="#FEFFFE" transform="matrix(1.00, 0.00, -0.00, -1.00, 271.3, 6.8)">e</text><text xml:space="preserve" font-family="Helvetica,Helvetica" font-size="21.0" fill="#FEFFFE" transform="matrix(1.00, 0.00, -0.00, -1.00, 283.0, 6.8)">y</text></g></svg>