<?xml version="1.0" encoding="UTF-8" standalone="no"?><svg xmlns="http://www.w3.org/2000/svg" xmlns:xlink="http://www.w3.org/1999/xlink" clip-rule="evenodd" stroke-miterlimit="10" viewBox="0 0 99 14"><desc>SVG generated by Keynote</desc><defs></defs><g transform="matrix(1.00, 0.00, -0.00, -1.00, 0.0, 14.0)"><text xml:space="preserve" font-family="Helvetica-Bold,Helvetica" font-weight="bold" font-size="13.0" fill="#DCDDE0" transform="matrix(1.00, 0.00, -0.00, -1.00, 1.5, 3.0)">C</text><text xml:space="preserve" font-family="Helvetica-Bold,Helvetica" font-weight="bold" font-size="13.0" fill="#DCDDE0" transform="matrix(1.00, 0.00, -0.00, -1.00, 10.9, 3.0)">A</text><text xml:space="preserve" font-family="Helvetica-Bold,Helvetica" font-weight="bold" font-size="13.0" fill="#DCDDE0" transform="matrix(1.00, 0.00, -0.00, -1.00, 20.3, 3.0)">S</text><text xml:space="preserve" font-family="Helvetica-Bold,Helvetica" font-weight="bold" font-size="13.0" fill="#DCDDE0" transform="matrix(1.00, 0.00, -0.00, -1.00, 29.0, 3.0)">E</text><text xml:space="preserve" font-family="Helvetica-Bold,Helvetica" font-weight="bold" font-size="13.0" fill="#DCDDE0" transform="matrix(1.00, 0.00, -0.00, -1.00, 37.7, 3.0)"> </text><text xml:space="preserve" font-family="Helvetica-Bold,Helvetica" font-weight="bold" font-size="13.0" fill="#DCDDE0" transform="matrix(1.00, 0.00, -0.00, -1.00, 41.3, 3.0)">S</text><text xml:space="preserve" font-family="Helvetica-Bold,Helvetica" font-weight="bold" font-size="13.0" fill="#DCDDE0" transform="matrix(1.00, 0.00, -0.00, -1.00, 49.9, 3.0)">T</text><text xml:space="preserve" font-family="Helvetica-Bold,Helvetica" font-weight="bold" font-size="13.0" fill="#DCDDE0" transform="matrix(1.00, 0.00, -0.00, -1.00, 57.9, 3.0)">U</text><text xml:space="preserve" font-family="Helvetica-Bold,Helvetica" font-weight="bold" font-size="13.0" fill="#DCDDE0" transform="matrix(1.00, 0.00, -0.00, -1.00, 67.3, 3.0)">D</text><text xml:space="preserve" font-family="Helvetica-Bold,Helvetica" font-weight="bold" font-size="13.0" fill="#DCDDE0" transform="matrix(1.00, 0.00, -0.00, -1.00, 76.7, 3.0)">I</text><text xml:space="preserve" font-family="Helvetica-Bold,Helvetica" font-weight="bold" font-size="13.0" fill="#DCDDE0" transform="matrix(1.00, 0.00, -0.00, -1.00, 80.3, 3.0)">E</text><text xml:space="preserve" font-family="Helvetica-Bold,Helvetica" font-weight="bold" font-size="13.0" fill="#DCDDE0" transform="matrix(1.00, 0.00, -0.00, -1.00, 88.9, 3.0)">S</text></g></svg>