<?xml version="1.0" encoding="UTF-8" standalone="no"?><svg xmlns="http://www.w3.org/2000/svg" xmlns:xlink="http://www.w3.org/1999/xlink" clip-rule="evenodd" stroke-miterlimit="10" viewBox="0 0 90 14"><desc>SVG generated by Keynote</desc><defs></defs><g transform="matrix(1.00, 0.00, -0.00, -1.00, 0.0, 14.0)"><text xml:space="preserve" font-family="Helvetica-Bold,Helvetica" font-weight="bold" font-size="13.0" fill="#DCDDE0" transform="matrix(1.00, 0.00, -0.00, -1.00, 1.5, 3.0)">D</text><text xml:space="preserve" font-family="Helvetica-Bold,Helvetica" font-weight="bold" font-size="13.0" fill="#DCDDE0" transform="matrix(1.00, 0.00, -0.00, -1.00, 10.9, 3.0)">O</text><text xml:space="preserve" font-family="Helvetica-Bold,Helvetica" font-weight="bold" font-size="13.0" fill="#DCDDE0" transform="matrix(1.00, 0.00, -0.00, -1.00, 21.0, 3.0)">W</text><text xml:space="preserve" font-family="Helvetica-Bold,Helvetica" font-weight="bold" font-size="13.0" fill="#DCDDE0" transform="matrix(1.00, 0.00, -0.00, -1.00, 33.3, 3.0)">N</text><text xml:space="preserve" font-family="Helvetica-Bold,Helvetica" font-weight="bold" font-size="13.0" fill="#DCDDE0" transform="matrix(1.00, 0.00, -0.00, -1.00, 42.7, 3.0)">L</text><text xml:space="preserve" font-family="Helvetica-Bold,Helvetica" font-weight="bold" font-size="13.0" fill="#DCDDE0" transform="matrix(1.00, 0.00, -0.00, -1.00, 50.6, 3.0)">O</text><text xml:space="preserve" font-family="Helvetica-Bold,Helvetica" font-weight="bold" font-size="13.0" fill="#DCDDE0" transform="matrix(1.00, 0.00, -0.00, -1.00, 60.8, 3.0)">A</text><text xml:space="preserve" font-family="Helvetica-Bold,Helvetica" font-weight="bold" font-size="13.0" fill="#DCDDE0" transform="matrix(1.00, 0.00, -0.00, -1.00, 70.1, 3.0)">D</text><text xml:space="preserve" font-family="Helvetica-Bold,Helvetica" font-weight="bold" font-size="13.0" fill="#DCDDE0" transform="matrix(1.00, 0.00, -0.00, -1.00, 79.5, 3.0)">S</text></g></svg>